<svg version="1" xmlns="http://www.w3.org/2000/svg" width="682.667" height="682.667" viewBox="0 0 512.000000 512.000000"><path d="M63.7 14.6C40.5 20.2 20 40.8 14.5 64.2c-2.2 9.5-2.2 373.1 0 382.6 5.6 23.6 26.1 44.1 49.7 49.7 9.5 2.2 373.1 2.2 382.6 0 23.6-5.6 44.1-26.1 49.7-49.7 2.2-9.5 2.2-373.1 0-382.6-5.6-23.6-26.1-44.1-49.7-49.7-9.2-2.1-374.1-2.1-383.1.1zm244.1 11c3.1 2.5 6.4 5.3 7.2 6.2 1.5 1.6 13.3 12.2 21.2 18.9l3.7 3.2 6.3-2.4c3.5-1.2 9.7-3.9 13.8-5.9 4.1-2 7.9-3.6 8.5-3.6.7 0 5.3-1.8 10.4-4 5.2-2.2 10.1-3.8 11.1-3.5 3.6 1.2 4.7 2.8 20.5 32.6 2.2 4.3 6.4 12.3 9.3 18 2.9 5.7 5.7 10.6 6.1 10.9.4.3 2.8 4.5 5.3 9.5 2.5 4.9 8 15.5 12.2 23.5 7.3 13.7 8.8 18.2 7.2 20.9-1.2 1.9-5 1.2-9.9-1.9-2.6-1.7-5.2-3-5.7-3s-1.7-.9-2.7-1.9c-1-1.1-4.5-3.4-7.8-5.2-3.3-1.8-11.4-8-17.9-13.7-6.5-5.7-12.8-10.8-14-11.3-1.2-.5-8.2-2.2-15.7-3.8-8.1-1.8-18.4-4.9-25-7.7-19.7-8-18-7.7-35.7-6.3-11.6.8-19.8.9-31.3.1-17.5-1.2-18.2-1.1-37.4 7.5-4.9 2.2-12.6 4.8-17 5.8-22.5 4.9-23.7 5.3-28.5 10.3-6.9 7.1-17 16.2-18 16.2-.9 0-10 5.9-11 7.1-.3.4-2.1 1.5-4 2.6-10.5 5.8-10.6 5.9-17 18.8-3.3 6.9-7.7 14.3-9.6 16.6-1.8 2.2-3.4 4.4-3.4 4.7 0 .4-1.8 2.7-4.1 5.2-2.2 2.5-4.7 5.7-5.7 7.2-.9 1.6-2 2.8-2.4 2.8-.5 0-.8 1.5-.8 3.2.1 12.2-5 38.8-9.9 51.1-.8 2.1-.8 3.4 0 4.9.6 1.2 2.5 6.9 4.1 12.7 1.6 5.8 3.1 11.3 3.4 12.1.8 2.8 2.4 17.5 2.4 21.7-.1 5.9 1.6 9 10.8 19.1 1.7 2 3.2 3.9 3.2 4.2 0 .4 1.5 2.3 3.3 4.3 1.7 2 6.1 9.5 9.7 16.5 5 9.9 7.1 13.2 9.3 14.1 1.5.7 3.3 1.8 4 2.5 1.1 1.1 11.7 7.7 18.6 11.6 1.4.8 3.8 2.6 5.2 4 5.6 5.4 17.5 15.7 19.4 16.7 1.1.6 7.4 2.3 14 3.7 17.1 3.7 18.7 4.1 22 5.8 1.7.9 7.9 3.5 13.9 5.8l11 4.3 16.7-1.2c13-1 20.2-1 32.1-.1l15.4 1.2 9.9-4.2c21-8.7 20.3-8.5 42.5-13.6 4.1-.9 8-2 8.7-2.3 1.1-.6 9.2-7.6 19.8-17.1 5.5-5 11-9 12.2-9 .4 0 2.1-1.1 3.7-2.5s3.4-2.5 3.9-2.5c.6 0 1.8-.6 2.6-1.4 2.8-2.4 9.1-5.6 11.2-5.6 1.2 0 2.3 1 3 2.7.9 2.4.1 4.5-6.6 17.7-4.1 8.3-8.6 16.9-9.8 19.2-1.2 2.2-4 7.6-6 12-2.1 4.3-5.1 9.9-6.7 12.4-1.5 2.5-2.9 5.1-2.9 5.9-.1.7-1.6 3.9-3.5 7s-5.4 9.6-7.9 14.6c-12.6 25.2-12.8 25.5-16.1 25.5-2.2 0-17.3-5.6-29.6-10.9-19.7-8.6-19.8-8.6-22.3-6.5-9.9 8.7-13.5 11.9-22.6 20.7-10.7 10.1-13.4 11.9-16.2 10.8-.9-.3-7.6-5.8-14.9-12.1-7.2-6.3-13.9-11.9-14.8-12.4-1-.5-3.5-2.6-5.7-4.6l-4-3.8-19 8c-29.8 12.5-28.1 11.9-30.9 10.8-2.8-1-7.7-8.2-13.7-20.3-2.3-4.5-4.5-8.4-4.9-8.7-.4-.3-2.1-3.5-3.8-7.3-2.2-4.8-3.6-6.7-4.9-6.6-1 0-9 .7-17.8 1.4-8.8.8-18 1.5-20.4 1.4-2.4 0-5.6.5-7.1 1.1-3.8 1.6-7.7-.2-9.4-4.2-.8-1.9-2.2-12.1-3.1-23.8-1-11.3-1.8-20.6-1.9-20.7-.3-.4-28-7.1-34.1-8.3-15.4-3-19.4-4.9-19.5-8.9 0-2.8 4.3-19.7 5.8-22.6.9-1.7 1.7-3.5 1.8-4 .2-.6 1.2-4.4 2.3-8.5 1.2-4.1 2.1-8 2.1-8.7 0-1.1-13.1-10.3-14.7-10.3-1 0-10.8-6.4-11.1-7.2-.2-.5-.8-.8-1.4-.8-.5 0-2.4-1-4.1-2.2-1.8-1.3-4.5-3-6.2-3.9-1.6-.9-3.8-2.8-4.9-4.2l-1.9-2.6 3.3-5c1.8-2.8 3.8-5.5 4.4-5.9.7-.4 3.4-3.7 6-7.5 2.6-3.7 5.1-6.7 5.4-6.7.4 0 2-2.1 3.6-4.8 1.6-2.6 4.1-5.9 5.4-7.4l2.5-2.7-3.4-3.9C65 251 61 246.1 58 242.1c-3-3.9-7.6-9.7-10.2-12.9-2.6-3.1-5.5-7.2-6.5-8.9-1.7-3.1-1.7-3.4.2-5.9 1.8-2.4 4.5-4.3 12.7-8.9 1.5-.8 5.3-3.3 8.4-5.5 3.2-2.2 6.1-4 6.6-4s2.4-1.1 4.2-2.5c1.8-1.4 3.6-2.5 4-2.5.4 0 1.9-.9 3.5-2l2.7-2.1-1.8-7.1c-1-3.9-2.2-7.6-2.8-8.3-.6-.7-1.3-2.1-1.5-3.1-.2-1.1-1.8-6.6-3.4-12.4-3.4-11.6-3.7-14.6-1.7-17.3 1.6-2 2.7-2.3 37.3-10.2 6.1-1.4 11.8-2.8 12.6-3.1 1.1-.4 1.7-2.5 2.1-7.2 1.5-19.5 3.7-38.5 4.6-40.2 1.3-2.5 3.4-2.5 30.5-.5 28.8 2.1 25.4 2.9 29.5-6.7 1.9-4.4 4.1-8.7 4.8-9.4.7-.7 3-5 5.3-9.6 8.4-17.5 9.6-18.6 17.1-15.4 1.8.8 8.7 3.6 15.3 6.1 6.6 2.6 12.5 5.1 13 5.5.9.7 10.5 4.4 14.7 5.7 1.2.4 4.6-2.1 11-7.9 19.2-17.5 28-24.8 29.9-24.8 1.1 0 4.5 2.1 7.7 4.6zm24.2 94.9c5.2.8 13.8 2.7 19 4.1 11.4 3 28.4 10.9 27.4 12.7-.4.7-2.4 3.7-4.4 6.7-2 3-6 9.5-9 14.5-2.9 4.9-5.4 9.1-5.6 9.3-.1.2-2-.6-4.2-1.7-12.5-6.4-38.3-10.7-58.7-9.7-29.4 1.3-53.4 11.2-73.4 30.2-14.1 13.4-23.2 28.1-28.3 46-1.9 6.7-2.3 10.1-2.2 22.9.1 13.3.4 16 2.8 24 11 36.1 41.5 63.7 79.5 71.8 13.7 2.9 34.6 2.8 49.9-.2 13.5-2.6 30.5-8 37.8-12l5.3-2.9 9.1 17.5c5 9.7 8.9 18.1 8.6 18.9-1.2 3.1-26.2 13-42.6 16.7-21.9 5.1-53.4 6.7-73 3.8-48.5-7.1-88.1-34.2-107.9-73.9-4-8-9.5-24.3-11.5-34.4-.9-4.3-1.9-13.1-2.2-19.5-3-55.5 27-105.5 78.1-130.3 17.8-8.7 37.2-14.4 56-16.4 8.4-.9 40.3.3 49.5 1.9z"/><path d="M294.4 28.8C274.1 47.5 261.9 58 260.6 58c-1.6 0-14.1-4.8-31.1-11.9-12.3-5.2-18.5-7.5-18.9-7-.4.6-10.5 19.7-17.1 32.6-3.2 6.2-6.1 11.3-6.4 11.3-.3 0-12.7-.9-27.5-2s-27.1-1.9-27.2-1.7c-.1.1-.8 6.3-1.5 13.7-.6 7.4-1.3 14.8-1.5 16.5-1.2 13.7-1.8 17.1-2.8 18.1-.6.6-3.3 1.6-6.1 2.2-2.7.6-13.5 3.2-24 5.8-10.4 2.5-19.5 4.7-20.2 4.8-.7.1-1.5.5-1.8.8-.4.4 2.6 11.4 5.3 18.8.3.8.6 1.9.8 2.5.2.5 1.5 4.8 3 9.5 5.4 17.4 5.2 15.9 2 18.3-1.6 1.1-6.2 4.1-10.3 6.6C54.4 209.8 44 216.5 44 217.2c0 .4 7 9.4 15.5 20S75 256.8 75 257.1c0 .3-6 8.3-13.4 17.7-7.4 9.5-14.4 18.5-15.6 20.1l-2 2.9 7.7 4.8c4.3 2.6 9.6 5.9 11.8 7.4 2.2 1.5 4.5 2.9 5.1 3.1 3.1 1.2 20.4 12.5 20.4 13.4 0 .5-.9 4.2-2.1 8-2 7-6.7 23.1-7.3 25-.1.5-1.1 3.6-2 6.8-1 3.3-1.4 6.3-1 6.7.5.5 7.9 2.4 16.4 4.4 8.5 1.9 18.7 4.2 22.5 5.1 3.9.9 8.1 1.9 9.4 2.1 4.1.8 3.7-.2 5.6 15.4.2 1.9 1.1 10.2 1.9 18.3.9 8.2 1.8 15.3 2.2 15.8.3.5 2.2.8 4.2.5 2-.3 7.8-.8 12.7-1.1 5-.4 10.6-.8 12.5-1 1.9-.2 8-.7 13.5-1 5.5-.4 10.4-.8 10.9-.9 1-.1 4.2 5.2 13 21.9 9.7 18.1 11.7 21.5 13.2 21.5.8 0 3.3-.9 5.7-1.9 5.1-2.4 30-12.9 37.9-16l5.7-2.3 19.3 17c11.4 10.2 19.7 16.8 20.4 16.4.6-.4 9.2-7.8 19-16.6 9.9-8.7 18.5-16.1 19.2-16.3 1.2-.5 7.5 1.7 17.1 6 17.1 7.5 33.2 13.3 34 12.3.9-1.2 5.8-10.4 23.6-45.1 12.5-24.4 20.8-40.2 27.7-53.3 2.8-5.2 4.7-9.6 4.4-9.9-.3-.3-1.9.3-3.5 1.3-1.6 1.1-7.6 4.8-13.3 8.3-5.7 3.6-15.7 11.2-22.3 17.1l-12 10.6-16.5 4.1c-11.2 2.8-21.2 6.1-31 10.3l-14.5 6.1-14.1-1.2c-13.1-1.1-23.6-1-43.9.7l-8 .6-14.5-5.7c-12-4.8-23.5-8.8-23.5-8.3 0 0-5.4-1.2-12-2.7-10.1-2.4-12.6-3.4-16-6.3-2.2-1.9-8-6.9-12.9-11.1-4.9-4.2-14.5-11-21.5-15.2l-12.6-7.6-7.6-13.8c-4.7-8.5-11-18.1-16.5-24.9-8.3-10.4-8.9-11.5-9.6-17.1-.4-3.3-.9-7.1-1.1-8.5-.3-1.4-.8-5.5-1.1-9.2-.4-3.7-1.4-8.8-2.1-11.5-.8-2.6-2.7-9.3-4.3-14.7-2.6-8.9-2.8-10.3-1.6-13.5 4.8-13.7 6.7-21.7 8-35.1.8-8 1.5-15.2 1.7-16.1.1-.8 4.6-7.1 9.8-14 6.2-8 12-17.1 16.5-25.7 6.7-13 6.9-13.3 13.4-17.3 17.2-10.6 20.7-13.1 31.6-22.9l11.8-10.5 15.6-3.8c18.7-4.5 16.5-3.8 22.4-6.5 2.7-1.2 5.2-2.2 5.7-2.2s3.7-1.3 7.1-2.8c11.5-5.2 12.5-5.5 18.5-4.9 16.5 1.7 27.7 1.8 42.5.8l16.3-1.2 11.5 4.7c6.3 2.5 13.3 5.3 15.5 6.1 4.5 1.7 31.2 8.3 33.5 8.3.9 0 6.8 4.7 13.2 10.5 7.4 6.7 16.1 13.3 23.5 17.9 6.5 4 12.8 7.9 14 8.6 1.2.8 2.5 1.2 2.8.8.3-.3-2.3-5.9-5.8-12.4-3.5-6.6-10.4-19.3-15.2-28.4-4.9-9.1-12.7-23.7-17.5-32.5-4.8-8.8-11-20.4-13.9-25.8-2.9-5.3-5.4-9.7-5.6-9.7-.8 0-15.1 5.8-21.8 8.9-3.7 1.7-7.3 3.1-8 3.1-.7 0-1.7.4-2.3.9-.5.5-4.6 2.3-9.1 4.1-9.6 3.8-7.4 4.7-23.5-9.7-12.3-10.9-24.6-21.3-25-21.3-.2.1-2.6 2.2-5.4 4.8z"/></svg>